<?xml version="1.0" encoding="utf-8"?>
<!-- Generator: Adobe Illustrator 18.1.1, SVG Export Plug-In . SVG Version: 6.00 Build 0)  -->
<svg version="1.1" id="Capa_1" xmlns="http://www.w3.org/2000/svg" xmlns:xlink="http://www.w3.org/1999/xlink" x="0px" y="0px"
	 viewBox="0 0 252.1 188.6" enable-background="new 0 0 252.1 188.6" xml:space="preserve">
<circle fill="#FFFFFF" cx="101" cy="99.8" r="61.3"/>
<path fill="#68AFC3" d="M130.4,117.9L130.4,117.9l-18.2-18.2l18.2-18.2l0,0c0.2-0.2,0.3-0.4,0.4-0.7c0.2-0.7,0.1-1.4-0.4-2l-8.6-8.6
	c-0.5-0.5-1.3-0.7-2-0.4c-0.2,0.1-0.5,0.2-0.7,0.4l0,0L101,88.5L82.8,70.3l0,0c-0.2-0.2-0.4-0.3-0.7-0.4c-0.7-0.2-1.4-0.1-2,0.4
	l-8.6,8.6c-0.5,0.5-0.7,1.3-0.4,2c0.1,0.2,0.2,0.5,0.4,0.7l0,0l18.2,18.2l-18.2,18.2l0,0c-0.2,0.2-0.3,0.4-0.4,0.7
	c-0.2,0.7-0.1,1.4,0.4,2l8.6,8.6c0.5,0.5,1.3,0.7,2,0.4c0.2-0.1,0.5-0.2,0.7-0.4l0,0L101,111l18.2,18.2l0,0c0.2,0.2,0.4,0.3,0.7,0.4
	c0.7,0.2,1.4,0.1,2-0.4l8.6-8.6c0.5-0.5,0.7-1.3,0.4-2C130.7,118.4,130.6,118.1,130.4,117.9z"/>
</svg>
