<?xml version="1.0" encoding="utf-8"?>
<!-- Generator: Adobe Illustrator 18.1.1, SVG Export Plug-In . SVG Version: 6.00 Build 0)  -->
<svg version="1.1" id="Capa_1" xmlns="http://www.w3.org/2000/svg" xmlns:xlink="http://www.w3.org/1999/xlink" x="0px" y="0px"
	 viewBox="0 0 612 792" enable-background="new 0 0 612 792" xml:space="preserve">
<circle fill="#FFFFFF" cx="245.2" cy="409.4" r="148.8"/>
<path fill="#68AFC3" d="M326.8,389.9L326.8,389.9l-62.5,0v-62.5l0,0c0-0.7-0.2-1.2-0.5-1.9c-0.9-1.5-2.2-2.6-4.1-2.7h-29.5
	c-1.7,0-3.4,1-4.1,2.7c-0.2,0.5-0.5,1.2-0.5,1.9l0,0l0.3,62.5h-62.5l0,0c-0.7,0-1.2,0.2-1.9,0.5c-1.5,0.9-2.6,2.2-2.7,4.1v29.5
	c0,1.7,1,3.4,2.7,4.1c0.5,0.2,1.2,0.5,1.9,0.5l0,0h62.5v62.5l0,0c0,0.7,0.2,1.2,0.5,1.9c0.9,1.5,2.2,2.6,4.1,2.7l29.5,0
	c1.7,0,3.4-1,4.1-2.7c0.2-0.5,0.5-1.2,0.5-1.9l0,0l-0.2-62.7H327l0,0c0.7,0,1.2-0.2,1.9-0.5c1.5-0.9,2.6-2.2,2.7-4.1v-29.5
	c0-1.7-1-3.4-2.7-4.1C328.2,390.3,327.5,389.9,326.8,389.9z"/>
</svg>
