<?xml version="1.0" encoding="utf-8"?>
<!-- Generator: Adobe Illustrator 18.1.1, SVG Export Plug-In . SVG Version: 6.00 Build 0)  -->
<svg version="1.1" id="Capa_1" xmlns="http://www.w3.org/2000/svg" xmlns:xlink="http://www.w3.org/1999/xlink" x="0px" y="0px"
	 viewBox="0 0 252.1 188.6" enable-background="new 0 0 252.1 188.6" xml:space="preserve">
<circle fill="#8CC63F" cx="101.3" cy="100.5" r="61.3"/>
<g>
	<path fill="#FFFFFF" d="M110.2,107.8c-0.4-0.1-3-1.3-1.4-6.2h0c4.2-4.3,7.4-11.2,7.4-18.1c0-10.5-7-16-15.1-16
		c-8.1,0-15.1,5.5-15.1,16c0,6.9,3.2,13.8,7.4,18.1c1.6,4.3-1.3,5.9-1.9,6.1C83,110.9,73,116.5,73,122v2.1c0,7.5,14.6,9.3,28.1,9.3
		c13.5,0,28-1.7,28-9.3V122C129.1,116.3,119.1,110.8,110.2,107.8L110.2,107.8z M110.2,107.8"/>
</g>
<g>
	<rect x="182.1" y="39.5" fill="#8CC63F" width="5.7" height="46.8"/>
	<rect x="161.5" y="60.1" fill="#8CC63F" width="46.8" height="5.7"/>
</g>
</svg>
